<?xml version="1.0" encoding="UTF-8"?>
<!DOCTYPE svg PUBLIC "-//W3C//DTD SVG 1.1//EN" "http://www.w3.org/Graphics/SVG/1.1/DTD/svg11.dtd">
<svg xmlns="http://www.w3.org/2000/svg" version="1.1" width="1000px" height="1000px" style="shape-rendering:geometricPrecision; text-rendering:geometricPrecision; image-rendering:optimizeQuality; fill-rule:evenodd; clip-rule:evenodd" xmlns:xlink="http://www.w3.org/1999/xlink">
<g><path style="opacity:0.814" fill="#463329" d="M 402.5,65.5 C 407.287,65.3484 411.954,66.015 416.5,67.5C 419.26,69.0754 421.927,70.9088 424.5,73C 426.935,76.5475 429.602,79.8808 432.5,83C 433.603,87.7818 434.436,92.6151 435,97.5C 436.512,98.2567 437.846,99.2567 439,100.5C 440.426,108.819 441.76,117.152 443,125.5C 444.385,126.551 445.385,127.884 446,129.5C 447,135.833 448,142.167 449,148.5C 450.333,149.833 451.667,151.167 453,152.5C 453.973,157.476 454.806,162.476 455.5,167.5C 456.738,169.924 458.238,172.258 460,174.5C 461.859,183.995 464.193,193.329 467,202.5C 467.227,205.06 468.56,206.726 471,207.5C 471.392,213.03 473.058,218.03 476,222.5C 476.56,227.632 478.393,232.132 481.5,236C 482.127,238.135 482.627,240.302 483,242.5C 485.496,239.846 488.329,237.679 491.5,236C 493.813,235.338 496.146,234.838 498.5,234.5C 498.281,233.325 498.614,232.325 499.5,231.5C 516.049,222.534 532.049,212.7 547.5,202C 550.063,200.921 552.729,200.421 555.5,200.5C 555.5,199.167 555.5,197.833 555.5,196.5C 557.308,196.509 558.975,196.009 560.5,195C 568.87,187.865 577.203,181.532 585.5,176C 591.799,174.67 598.132,174.004 604.5,174C 620.054,181.455 627.054,193.955 625.5,211.5C 628.243,211.077 629.576,212.244 629.5,215C 628.833,217.667 628.167,220.333 627.5,223C 628.252,225.154 628.419,227.32 628,229.5C 625.778,234.878 622.944,239.878 619.5,244.5C 618.264,245.246 616.93,245.579 615.5,245.5C 615.67,246.822 615.337,247.989 614.5,249C 604.901,251.038 595.235,252.705 585.5,254C 583.382,254.26 581.716,255.26 580.5,257C 571.606,260.033 562.606,262.867 553.5,265.5C 551.847,267.121 549.847,268.288 547.5,269C 538.656,270.883 529.989,273.216 521.5,276C 520.04,277.582 518.373,278.915 516.5,280C 513.136,280.727 509.803,281.56 506.5,282.5C 504.585,286.406 505.418,289.406 509,291.5C 511.813,296.249 514.813,300.915 518,305.5C 518.495,307.473 518.662,309.473 518.5,311.5C 519.552,311.351 520.552,311.517 521.5,312C 524.522,315.677 526.522,319.844 527.5,324.5C 530.722,326.14 532.056,328.807 531.5,332.5C 532.822,332.33 533.989,332.663 535,333.5C 537.516,337.184 539.35,341.184 540.5,345.5C 543.502,346.83 545.002,349.164 545,352.5C 545.925,353.047 546.758,353.713 547.5,354.5C 549.139,358.77 551.139,362.77 553.5,366.5C 556.547,367.875 557.88,370.208 557.5,373.5C 561.79,373.784 565.123,372.284 567.5,369C 577.145,363.655 586.478,357.988 595.5,352C 597.813,351.338 600.146,350.838 602.5,350.5C 602.281,349.325 602.614,348.325 603.5,347.5C 607.797,344.68 612.13,341.847 616.5,339C 617.793,338.51 619.127,338.343 620.5,338.5C 620.33,337.178 620.663,336.011 621.5,335C 625.5,332.333 629.5,329.667 633.5,327C 644.313,323.183 653.979,325.183 662.5,333C 666.02,337.19 669.187,341.69 672,346.5C 673.686,355.636 675.186,364.803 676.5,374C 674.709,381.171 671.875,388.005 668,394.5C 665.001,395.683 662.501,397.516 660.5,400C 652.185,401.441 643.852,402.775 635.5,404C 634.449,405.385 633.116,406.385 631.5,407C 626.878,408.207 622.211,409.207 617.5,410C 616.167,411 614.833,412 613.5,413C 604.564,414.816 595.898,417.316 587.5,420.5C 587.5,421.5 587.5,422.5 587.5,423.5C 590.766,423.433 592.266,425.099 592,428.5C 596.033,433.859 600.033,439.192 604,444.5C 605.544,447.738 607.044,451.071 608.5,454.5C 611.987,455.509 613.32,457.842 612.5,461.5C 613.822,461.33 614.989,461.663 616,462.5C 618.04,465.71 619.873,469.043 621.5,472.5C 624.756,476.934 628.256,481.267 632,485.5C 631.816,488.797 633.316,490.797 636.5,491.5C 638.462,494.322 640.129,497.322 641.5,500.5C 643.817,503.317 646.317,505.984 649,508.5C 660.886,527.369 674.219,545.035 689,561.5C 689.49,562.793 689.657,564.127 689.5,565.5C 690.552,565.351 691.552,565.517 692.5,566C 694.827,569.509 697.493,572.676 700.5,575.5C 703.127,579.137 705.793,582.804 708.5,586.5C 709.213,588.776 709.713,591.109 710,593.5C 711.676,594.061 713.009,595.061 714,596.5C 715.456,605.525 716.956,614.525 718.5,623.5C 716.124,627.451 714.957,631.784 715,636.5C 713.171,638.156 711.837,640.156 711,642.5C 708.261,645.118 705.427,647.618 702.5,650C 699.689,650.629 696.856,651.129 694,651.5C 691.966,651.646 690.299,650.98 689,649.5C 688.275,650.059 687.442,650.392 686.5,650.5C 673.879,643.853 661.879,636.187 650.5,627.5C 649.311,626.571 647.978,626.238 646.5,626.5C 643.864,622.215 642.03,617.549 641,612.5C 638.329,610.175 636.996,607.175 637,603.5C 633.75,599.108 631.083,594.441 629,589.5C 628.587,586.768 627.92,584.101 627,581.5C 626.333,580.167 625.667,580.167 625,581.5C 620.587,572.954 616.754,564.121 613.5,555C 607.297,546.626 602.631,537.46 599.5,527.5C 598.24,526.618 597.074,525.618 596,524.5C 593.862,519.944 591.862,515.277 590,510.5C 587.329,508.175 585.996,505.175 586,501.5C 584.989,500.663 583.822,500.33 582.5,500.5C 581.908,497.873 581.575,495.206 581.5,492.5C 580.5,492.5 579.5,492.5 578.5,492.5C 578.567,490.599 578.233,488.766 577.5,487C 574.667,483.167 571.833,479.333 569,475.5C 567.37,471.051 565.537,466.718 563.5,462.5C 560.279,460.387 558.945,457.387 559.5,453.5C 558.325,453.719 557.325,453.386 556.5,452.5C 553.974,448.81 552.14,444.81 551,440.5C 549.488,439.743 548.154,438.743 547,437.5C 545.016,439.613 542.516,440.78 539.5,441C 538.663,442.011 538.33,443.178 538.5,444.5C 536.599,444.433 534.766,444.767 533,445.5C 528.271,448.52 523.437,451.353 518.5,454C 517.833,455 517.167,456 516.5,457C 510.416,460.166 504.416,463.499 498.5,467C 497.833,468 497.167,469 496.5,470C 493.308,472.566 489.642,474.066 485.5,474.5C 485.719,475.675 485.386,476.675 484.5,477.5C 480.679,480.482 476.346,482.482 471.5,483.5C 471.5,484.5 471.5,485.5 471.5,486.5C 467.255,487.858 463.255,489.691 459.5,492C 446.829,501.652 433.829,510.985 420.5,520C 410.061,528.587 400.061,537.587 390.5,547C 386.433,548.466 383.433,551.133 381.5,555C 378.099,554.734 376.433,556.234 376.5,559.5C 375.5,559.5 374.5,559.5 373.5,559.5C 373.5,560.5 373.5,561.5 373.5,562.5C 372.5,562.5 371.5,562.5 370.5,562.5C 370.762,563.978 370.429,565.311 369.5,566.5C 364.368,571.461 359.034,576.295 353.5,581C 341.485,584.347 330.652,582.181 321,574.5C 320.667,574.833 320.333,575.167 320,575.5C 312,570.167 304,564.833 296,559.5C 294.637,555.239 294.304,550.905 295,546.5C 297.087,543.334 299.421,540.334 302,537.5C 302.483,536.552 302.649,535.552 302.5,534.5C 304.942,534.881 305.609,534.214 304.5,532.5C 307.937,527.274 311.604,522.274 315.5,517.5C 316.325,516.614 317.325,516.281 318.5,516.5C 318.5,515.167 318.5,513.833 318.5,512.5C 323.694,509.49 329.027,506.657 334.5,504C 340.612,503.954 345.946,501.954 350.5,498C 356.508,496.653 361.841,493.987 366.5,490C 371.75,486.882 377.417,484.549 383.5,483C 383.998,481.842 384.831,481.009 386,480.5C 390.13,480.419 393.296,478.752 395.5,475.5C 399.192,475.224 402.192,473.724 404.5,471C 409.331,469.282 413.997,467.282 418.5,465C 424.744,459.957 431.577,455.79 439,452.5C 449.047,445.765 459.047,439.098 469,432.5C 470.811,431.922 472.645,431.422 474.5,431C 475.337,429.989 475.67,428.822 475.5,427.5C 479.367,425.489 483.367,423.656 487.5,422C 499.294,413.597 511.294,405.431 523.5,397.5C 521.314,393.107 518.981,388.773 516.5,384.5C 515.24,383.618 514.074,382.618 513,381.5C 510.638,377.436 508.804,373.103 507.5,368.5C 506.5,368.5 505.5,368.5 504.5,368.5C 504.657,367.127 504.49,365.793 504,364.5C 501.161,361.477 498.827,358.143 497,354.5C 496.178,352.212 495.511,349.878 495,347.5C 493.853,348.458 492.853,348.125 492,346.5C 491.156,343.322 489.489,340.655 487,338.5C 485.677,334.705 484.177,331.039 482.5,327.5C 481.178,327.67 480.011,327.337 479,326.5C 475.499,319.814 471.999,313.148 468.5,306.5C 463.41,303.087 458.743,303.92 454.5,309C 450.167,310.667 445.833,312.333 441.5,314C 440.167,314.667 439.167,315.667 438.5,317C 430.761,321.202 422.761,324.869 414.5,328C 413.833,329 413.167,330 412.5,331C 402.366,335.255 392.699,340.255 383.5,346C 365.548,359.318 347.548,372.652 329.5,386C 328.207,386.49 326.873,386.657 325.5,386.5C 325.833,389.5 324.5,390.833 321.5,390.5C 321.5,391.5 321.5,392.5 321.5,393.5C 320.127,393.343 318.793,393.51 317.5,394C 314.191,399.151 309.858,402.984 304.5,405.5C 304.78,408.388 303.447,409.888 300.5,410C 299.833,411 299.167,412 298.5,413C 294.27,414.581 289.936,415.248 285.5,415C 284.069,414.535 282.903,413.701 282,412.5C 280.612,413.554 279.112,413.72 277.5,413C 264.052,406.282 251.219,398.449 239,389.5C 237.085,385.377 237.418,381.377 240,377.5C 247.656,366.188 255.656,355.188 264,344.5C 266.742,343.43 269.242,341.93 271.5,340C 276.242,340.487 279.908,338.82 282.5,335C 288.147,333.892 293.814,332.892 299.5,332C 300.047,331.075 300.713,330.242 301.5,329.5C 307.225,326.617 313.225,324.45 319.5,323C 323.287,319.204 327.953,317.204 333.5,317C 334.167,316.333 334.833,315.667 335.5,315C 346.173,310.666 356.839,306.333 367.5,302C 392.275,288.055 417.609,274.721 443.5,262C 439.376,255.957 436.209,249.457 434,242.5C 430.538,240.582 428.871,237.582 429,233.5C 426.255,229.681 423.755,225.681 421.5,221.5C 417.466,213.377 413.799,205.044 410.5,196.5C 407.94,192.041 405.107,187.708 402,183.5C 399.715,179.186 398.049,174.519 397,169.5C 393.538,167.582 391.871,164.582 392,160.5C 391.667,160.833 391.333,161.167 391,161.5C 388.298,156.096 385.631,150.763 383,145.5C 382,144.5 381,143.5 380,142.5C 375.519,133.313 370.852,124.313 366,115.5C 365.272,112.77 365.438,110.103 366.5,107.5C 373.378,98.7739 379.545,89.4405 385,79.5C 387.905,76.6171 390.738,73.6171 393.5,70.5C 396.342,68.3791 399.342,66.7124 402.5,65.5 Z"/></g>
<g><path style="opacity:0.805" fill="#463329" d="M 375.5,639.5 C 391.825,639.821 401.992,647.821 406,663.5C 407.147,662.542 408.147,662.875 409,664.5C 410.437,671.622 411.604,678.789 412.5,686C 410.967,693.093 409.8,700.26 409,707.5C 408.415,709.129 407.581,710.629 406.5,712C 407.459,714.12 407.626,716.287 407,718.5C 404.191,721.033 403.691,724.033 405.5,727.5C 403.61,731.105 403.277,734.938 404.5,739C 404.548,742.494 403.881,745.827 402.5,749C 403.296,753.59 403.962,757.923 404.5,762C 403.106,762.956 402.439,764.289 402.5,766C 403.694,774.191 405.027,782.358 406.5,790.5C 408.7,792.253 409.867,794.586 410,797.5C 413.791,800.761 416.291,804.761 417.5,809.5C 418.552,809.351 419.552,809.517 420.5,810C 428.835,818.964 437.502,826.964 446.5,834C 447.337,835.011 447.67,836.178 447.5,837.5C 450.343,837.917 453.01,838.917 455.5,840.5C 464.478,846.654 473.811,852.154 483.5,857C 488.752,858.979 494.086,860.645 499.5,862C 502.033,864.809 505.033,865.309 508.5,863.5C 510.481,863.437 512.148,864.104 513.5,865.5C 522.428,864.239 530.928,861.906 539,858.5C 546.962,853.624 555.129,849.124 563.5,845C 568.814,841.346 574.147,837.679 579.5,834C 581.345,832.872 583.345,832.372 585.5,832.5C 585.5,831.167 585.5,829.833 585.5,828.5C 589.018,827.343 592.351,825.677 595.5,823.5C 596.386,822.675 596.719,821.675 596.5,820.5C 601.865,817.646 606.532,813.812 610.5,809C 611.448,808.517 612.448,808.351 613.5,808.5C 614.729,804.605 617.396,802.105 621.5,801C 622.167,800 622.833,799 623.5,798C 629.767,795.033 636.1,794.866 642.5,797.5C 647.104,799.957 651.437,802.623 655.5,805.5C 655.351,806.552 655.517,807.552 656,808.5C 657.667,809.5 659,810.833 660,812.5C 661.167,818.17 662.334,823.837 663.5,829.5C 664.971,830.381 665.804,831.714 666,833.5C 667.736,845.725 664.903,856.558 657.5,866C 655.356,867.146 653.523,868.646 652,870.5C 649.901,871.287 647.734,871.62 645.5,871.5C 645.67,872.822 645.337,873.989 644.5,875C 640.465,875.874 636.465,876.874 632.5,878C 631.833,878.667 631.167,879.333 630.5,880C 626.534,880.828 622.534,881.328 618.5,881.5C 618.5,882.833 618.5,884.167 618.5,885.5C 610.323,885.594 603.323,888.427 597.5,894C 593.204,895.324 588.871,896.491 584.5,897.5C 584.023,898.478 583.357,899.311 582.5,900C 577.234,901.483 571.901,902.65 566.5,903.5C 563.455,905.598 560.122,907.098 556.5,908C 545.296,909.895 534.129,911.729 523,913.5C 510.515,911.042 498.015,908.208 485.5,905C 472.116,898.802 458.783,892.302 445.5,885.5C 445.646,883.058 444.813,882.391 443,883.5C 440.672,882.514 438.672,880.514 437,877.5C 436.667,877.833 436.333,878.167 436,878.5C 425.835,870.951 415.668,863.618 405.5,856.5C 405.5,855.5 405.5,854.5 405.5,853.5C 404.448,853.649 403.448,853.483 402.5,853C 392.853,843.53 383.853,833.697 375.5,823.5C 372.112,818.667 368.945,813.667 366,808.5C 365.006,805.039 364.173,801.539 363.5,798C 362.66,796.829 361.827,795.662 361,794.5C 359.907,788.516 358.907,782.516 358,776.5C 356.07,773.638 354.403,770.638 353,767.5C 350.333,750.167 347.667,732.833 345,715.5C 339.111,704.491 337.444,692.825 340,680.5C 344.01,676.48 347.01,671.813 349,666.5C 355.996,655.671 364.829,646.671 375.5,639.5 Z"/></g>
</svg>
